<svg width="38" height="38" viewBox="0 0 38 38" fill="none" xmlns="http://www.w3.org/2000/svg">
<path d="M33.75 22.5H37.5V26.25H33.75C31.1625 26.25 28.6125 25.5938 26.25 24.375C21.5625 26.8125 15.9375 26.8125 11.25 24.375C8.8875 25.5938 6.31875 26.25 3.75 26.25H0V22.5H3.75C6.35625 22.5 8.9625 21.6187 11.25 20.0063C15.825 23.2125 21.675 23.2125 26.25 20.0063C28.5375 21.6187 31.1437 22.5 33.75 22.5ZM33.75 33.75H37.5V37.5H33.75C31.1625 37.5 28.6125 36.8438 26.25 35.625C21.5625 38.0625 15.9375 38.0625 11.25 35.625C8.8875 36.8438 6.31875 37.5 3.75 37.5H0V33.75H3.75C6.35625 33.75 8.9625 32.8688 11.25 31.2563C15.825 34.4625 21.675 34.4625 26.25 31.2563C28.5375 32.8688 31.1437 33.75 33.75 33.75ZM9.375 0L1.875 7.5H7.5V16.875H11.25V7.5H16.875M28.125 0L20.625 7.5H26.25V16.875H30V7.5H35.625" fill="#F2A71B"/>
</svg>
