<svg width="37" height="38" viewBox="0 0 37 38" fill="none" xmlns="http://www.w3.org/2000/svg">
<path d="M25.6415 28.365C24.7994 27.7325 23.6572 27.3771 22.4663 27.3771C21.2753 27.3771 20.1332 27.7325 19.291 28.365C18.4489 28.9975 17.9758 29.8555 17.9758 30.75C17.9758 31.6445 18.4489 32.5025 19.291 33.135C19.708 33.4482 20.203 33.6966 20.7478 33.8662C21.2927 34.0357 21.8766 34.1229 22.4663 34.1229C23.056 34.1229 23.6399 34.0357 24.1847 33.8662C24.7295 33.6966 25.2245 33.4482 25.6415 33.135C26.0585 32.8218 26.3892 32.45 26.6149 32.0408C26.8406 31.6315 26.9567 31.1929 26.9567 30.75C26.9567 30.3071 26.8406 29.8685 26.6149 29.4592C26.3892 29.05 26.0585 28.6782 25.6415 28.365ZM10.4843 24V37.5H34.4483V24H10.4843ZM31.4528 33C30.659 33 29.8951 33.2362 29.3409 33.6637C28.7718 34.08 28.4573 34.6537 28.4573 35.25H16.4753C16.4753 34.6537 16.1607 34.08 15.5916 33.6637C15.0374 33.2362 14.2736 33 13.4798 33V28.5C14.2736 28.5 15.0374 28.2637 15.5916 27.8362C16.1607 27.42 16.4753 26.8462 16.4753 26.25H28.4573C28.4573 26.8462 28.7718 27.42 29.3409 27.8362C29.8951 28.2637 30.659 28.5 31.4528 28.5V33ZM7.48876 26.25H4.49325C3.66949 26.25 2.9955 25.7437 2.9955 25.125C2.9955 24.5062 3.66949 24 4.49325 24H7.48876V26.25ZM7.48876 31.875H2.9955C2.17174 31.875 1.49775 31.3687 1.49775 30.75C1.49775 30.1312 2.17174 29.625 2.9955 29.625H7.48876V31.875ZM7.48876 37.5H1.49775C0.670992 37.5 0 36.9937 0 36.375C0 35.7562 0.670992 35.25 1.49775 35.25H7.48876V37.5Z" fill="#F2A71B"/>
<path d="M21.0518 9.45C23.1667 9.45 25.1949 10.0031 26.6904 10.9877C28.1858 11.9723 29.0259 13.3076 29.0259 14.7V21H13.0777V14.7C13.0777 13.3076 13.9178 11.9723 15.4132 10.9877C16.9087 10.0031 18.9369 9.45 21.0518 9.45ZM10.3473 12.6063C10.0935 13.1699 9.94358 13.7516 9.90076 14.3388L9.888 14.7V21H5.10352V16.275C5.1032 15.3695 5.61072 14.4957 6.52871 13.8214C7.4467 13.147 8.71053 12.7196 10.0778 12.621L10.3473 12.6063ZM31.7563 12.6063C33.1755 12.6633 34.5083 13.0746 35.4827 13.7563C36.4572 14.438 36.9999 15.3389 37.0001 16.275V21H32.2156V14.7C32.2156 13.9723 32.0561 13.2699 31.7563 12.6063ZM10.6854 6.3C11.7428 6.3 12.757 6.57656 13.5047 7.06884C14.2524 7.56113 14.6725 8.22881 14.6725 8.925C14.6725 9.62119 14.2524 10.2889 13.5047 10.7812C12.757 11.2734 11.7428 11.55 10.6854 11.55C9.62798 11.55 8.61385 11.2734 7.86613 10.7812C7.11841 10.2889 6.69834 9.62119 6.69834 8.925C6.69834 8.22881 7.11841 7.56113 7.86613 7.06884C8.61385 6.57656 9.62798 6.3 10.6854 6.3ZM31.4182 6.3C32.4756 6.3 33.4897 6.57656 34.2375 7.06884C34.9852 7.56113 35.4052 8.22881 35.4052 8.925C35.4052 9.62119 34.9852 10.2889 34.2375 10.7812C33.4897 11.2734 32.4756 11.55 31.4182 11.55C30.3607 11.55 29.3466 11.2734 28.5989 10.7812C27.8512 10.2889 27.4311 9.62119 27.4311 8.925C27.4311 8.22881 27.8512 7.56113 28.5989 7.06884C29.3466 6.57656 30.3607 6.3 31.4182 6.3ZM21.0518 0C22.7437 0 24.3663 0.442499 25.5626 1.23015C26.759 2.0178 27.4311 3.08609 27.4311 4.2C27.4311 5.31391 26.759 6.3822 25.5626 7.16985C24.3663 7.9575 22.7437 8.4 21.0518 8.4C19.3599 8.4 17.7373 7.9575 16.5409 7.16985C15.3446 6.3822 14.6725 5.31391 14.6725 4.2C14.6725 3.08609 15.3446 2.0178 16.5409 1.23015C17.7373 0.442499 19.3599 0 21.0518 0Z" fill="#F2A71B"/>
</svg>
