<svg width="33" height="27" viewBox="0 0 33 27" fill="none" xmlns="http://www.w3.org/2000/svg">
<path d="M4.94181 26.0398H2.45274C1.96185 26.0398 1.4922 25.9062 1.14697 25.6698C0.801801 25.4335 0.611178 25.1154 0.611178 24.7868V17.1176C0.611178 16.789 0.8018 16.4709 1.14697 16.2346C1.4922 15.9982 1.96185 15.8646 2.45274 15.8646H4.94181C5.4327 15.8646 5.90235 15.9982 6.24758 16.2346C6.59275 16.4709 6.78337 16.789 6.78337 17.1176V24.7868C6.78337 25.1154 6.59275 25.4335 6.24758 25.6698C5.90235 25.9062 5.4327 26.0398 4.94181 26.0398ZM22.3653 26.0398H19.8762C19.3853 26.0398 18.9157 25.9062 18.5705 25.6698C18.2253 25.4335 18.0347 25.1154 18.0347 24.7868V12.0048C18.0347 11.6762 18.2253 11.3581 18.5705 11.1218C18.9157 10.8854 19.3853 10.7518 19.8762 10.7518H22.3653C22.8562 10.7518 23.3258 10.8854 23.6711 11.1218C24.0162 11.3581 24.2069 11.6762 24.2069 12.0048V24.7868C24.2069 25.1154 24.0162 25.4335 23.6711 25.6698C23.3258 25.9062 22.8562 26.0398 22.3653 26.0398ZM31.0771 26.0398H28.588C28.0971 26.0398 27.6274 25.9062 27.2822 25.6698C26.937 25.4335 26.7464 25.1154 26.7464 24.7868V6.03985C26.7464 5.71129 26.937 5.39319 27.2822 5.15685C27.6274 4.92048 28.0971 4.78689 28.588 4.78689H31.0771C31.5679 4.78689 32.0376 4.92048 32.3828 5.15685C32.728 5.39319 32.9186 5.71129 32.9186 6.03985V24.7868C32.9186 25.1154 32.728 25.4335 32.3828 25.6698C32.0376 25.9062 31.5679 26.0398 31.0771 26.0398ZM13.6536 26.0398H11.1645C10.6736 26.0398 10.2039 25.9062 9.85872 25.6698C9.51355 25.4335 9.32293 25.1154 9.32293 24.7868V1.77918C9.32293 1.45062 9.51355 1.13252 9.85872 0.89618C10.2039 0.659802 10.6736 0.526217 11.1645 0.526217H13.6536C14.1444 0.526217 14.6141 0.659802 14.9593 0.89618C15.3045 1.13252 15.4951 1.45062 15.4951 1.77918V24.7868C15.4951 25.1154 15.3045 25.4335 14.9593 25.6698C14.6141 25.9062 14.1444 26.0398 13.6536 26.0398Z" fill="#F3B51C" stroke="black" stroke-width="0.0504808"/>
</svg>
