<svg width="35" height="28" viewBox="0 0 35 28" fill="none" xmlns="http://www.w3.org/2000/svg">
<path d="M17.7649 7.52187C16.8114 7.52187 15.8969 7.1852 15.2226 6.58593C14.5484 5.98666 14.1696 5.17387 14.1696 4.32636C14.1696 3.47886 14.5484 2.66607 15.2226 2.0668C15.8969 1.46753 16.8114 1.13086 17.7649 1.13086C18.7184 1.13086 19.6329 1.46753 20.3072 2.0668C20.9814 2.66607 21.3602 3.47886 21.3602 4.32636C21.3602 5.17387 20.9814 5.98666 20.3072 6.58593C19.6329 7.1852 18.7184 7.52187 17.7649 7.52187ZM17.7649 7.52187V20.3039M17.7649 20.3039C18.7184 20.3039 19.6329 20.6406 20.3072 21.2398C20.9814 21.8391 21.3602 22.6519 21.3602 23.4994C21.3602 24.3469 20.9814 25.1597 20.3072 25.759C19.6329 26.3582 18.7184 26.6949 17.7649 26.6949C16.8114 26.6949 15.8969 26.3582 15.2226 25.759C14.5484 25.1597 14.1696 24.3469 14.1696 23.4994C14.1696 22.6519 14.5484 21.8391 15.2226 21.2398C15.8969 20.6406 16.8114 20.3039 17.7649 20.3039ZM7.54699 14.7054L15.3992 6.72939M27.9828 14.7054L20.1342 6.73258M8.77659 17.1084C8.77659 16.2609 8.39779 15.4481 7.72354 14.8488C7.04929 14.2496 6.1348 13.9129 5.18126 13.9129C4.22772 13.9129 3.31324 14.2496 2.63898 14.8488C1.96473 15.4481 1.58594 16.2609 1.58594 17.1084C1.58594 17.9559 1.96473 18.7687 2.63898 19.368C3.31324 19.9672 4.22772 20.3039 5.18126 20.3039C6.1348 20.3039 7.04929 19.9672 7.72354 19.368C8.39779 18.7687 8.77659 17.9559 8.77659 17.1084ZM33.9439 17.1084C33.9439 16.2609 33.5651 15.4481 32.8908 14.8488C32.2166 14.2496 31.3021 13.9129 30.3485 13.9129C29.395 13.9129 28.4805 14.2496 27.8063 14.8488C27.132 15.4481 26.7532 16.2609 26.7532 17.1084C26.7532 17.9559 27.132 18.7687 27.8063 19.368C28.4805 19.9672 29.395 20.3039 30.3485 20.3039C31.3021 20.3039 32.2166 19.9672 32.8908 19.368C33.5651 18.7687 33.9439 17.9559 33.9439 17.1084Z" stroke="#F3B51C" stroke-width="2" stroke-linecap="round" stroke-linejoin="round"/>
</svg>
