<svg width="33" height="27" viewBox="0 0 33 27" fill="none" xmlns="http://www.w3.org/2000/svg">
<path d="M22.7256 15.5002C23.4636 15.5002 24.0738 15.2991 24.5563 14.8967C25.0389 14.4943 25.2801 13.9853 25.2801 13.3699C25.2801 12.7545 25.0389 12.2456 24.5563 11.8432C24.0738 11.4408 23.4636 11.2396 22.7256 11.2396C21.9876 11.2396 21.3773 11.4408 20.8948 11.8432C20.4123 12.2456 20.171 12.7545 20.171 13.3699C20.171 13.9853 20.4123 14.4943 20.8948 14.8967C21.3773 15.2991 21.9876 15.5002 22.7256 15.5002ZM17.6164 20.471C16.6797 20.471 15.8776 20.1927 15.21 19.6359C14.5424 19.0792 14.2092 18.4108 14.2103 17.6306V9.10924C14.2103 8.32812 14.5441 7.65919 15.2117 7.10246C15.8793 6.54573 16.6809 6.26784 17.6164 6.26879H29.5378C30.4744 6.26879 31.2766 6.54715 31.9442 7.10388C32.6118 7.66061 32.945 8.32906 32.9439 9.10924V17.6306C32.9439 18.4117 32.6101 19.0806 31.9425 19.6374C31.2749 20.1941 30.4733 20.472 29.5378 20.471H17.6164ZM3.99204 26.1519C3.05536 26.1519 2.25322 25.8736 1.58563 25.3168C0.918035 24.7601 0.584805 24.0917 0.58594 23.3115V3.42834C0.58594 2.64722 0.919738 1.97829 1.58733 1.42156C2.25493 0.864837 3.0565 0.586946 3.99204 0.587893H27.8347C28.7714 0.587893 29.5735 0.866257 30.2411 1.42299C30.9087 1.97971 31.2419 2.64817 31.2408 3.42834H17.6164C15.6011 3.42834 13.9617 3.95525 12.698 5.00905C11.4344 6.06286 10.8031 7.42959 10.8042 9.10924V17.6306C10.8042 19.3112 11.4361 20.6784 12.6997 21.7322C13.9634 22.786 15.6023 23.3124 17.6164 23.3115H31.2408C31.2408 24.0926 30.907 24.7615 30.2394 25.3183C29.5718 25.875 28.7703 26.1529 27.8347 26.1519H3.99204Z" fill="#F3B51C"/>
</svg>
