<svg width="54" height="50" viewBox="0 0 54 50" fill="none" xmlns="http://www.w3.org/2000/svg">
<path d="M26.1728 47.566C25.5672 47.0433 24.8285 46.5748 24.0088 46.1534L23.9489 46.1226L23.8862 46.0979C23.6704 46.0128 23.4636 45.9322 23.2635 45.8544C22.8724 45.702 22.5072 45.5598 22.1509 45.4132L22.1509 45.4132L22.1416 45.4095L20.3918 44.7047L20.294 44.6653L20.1911 44.6415C18.2143 44.1833 15.3203 43.1215 11.485 41.4408C8.03476 39.4052 5.66363 37.616 4.2833 36.0858C2.55998 34.0215 1.77809 31.7792 1.86348 29.3189C1.93283 28.7906 2.10825 28.0388 2.40773 27.0455C2.82156 25.808 3.30073 24.5864 3.84394 23.3842C5.11052 20.6857 5.80636 18.3751 5.72153 16.5278C5.58285 13.3769 4.64432 10.3525 2.95013 7.46604L9.81204 2.10631C12.3052 3.58772 15.1931 4.49787 18.2018 4.75691L18.2018 4.75693L18.2082 4.75745C21.3096 5.00987 24.3143 4.60887 27.2419 3.56525C30.0637 4.75458 33.0659 5.25794 36.2226 5.08421C39.5247 4.96635 42.526 4.09935 45.2218 2.49274L51.7275 8.04364C49.7836 10.8582 48.6148 13.9285 48.2002 17.2528C47.9462 19.1615 48.5225 21.59 49.6327 24.4142L49.6327 24.4142L49.6372 24.4254C50.7715 27.2373 51.3172 29.1404 51.4051 30.2201C51.3688 32.7244 50.4515 34.9403 48.5675 36.9438C47.0346 38.4059 44.578 40.0969 41.1125 42.0141C40.2656 42.4422 38.8551 42.9507 36.8122 43.5L36.8122 43.4999L36.8022 43.5027C35.8805 43.758 34.9628 44.0241 34.0496 44.3009L26.1728 47.566ZM26.1728 47.566C26.8297 47.0539 27.5987 46.6146 28.4409 46.2295L28.5102 46.1979L28.5825 46.174C29.3398 45.9245 30.0911 45.6622 30.8359 45.3871L30.8503 45.3818L30.8649 45.3768L32.1904 44.9207C32.687 44.7326 33.3127 44.5241 34.0495 44.3009L26.1728 47.566Z" fill="#FBBD17" stroke="black" stroke-width="2.73167"/>
<path d="M23.213 27.0068V27.2149C23.213 29.4856 24.2139 31.4388 25.7401 32.1614V32.2971C24.2139 33.0197 23.2129 34.9729 23.2129 37.2436V37.4517H30.7346V37.2436C30.7346 34.9596 29.7168 33.0058 28.1763 32.295V32.1635C29.7166 31.4526 30.7346 29.4989 30.7346 27.2149V27.0068H23.2129H23.213ZM23.7097 27.423H30.2379C30.173 29.571 29.1168 31.3322 27.8263 31.853L27.6862 31.9094V32.5498L27.8263 32.6061C29.1167 33.1269 30.1729 34.8876 30.2379 37.0355H23.7097C23.7741 34.8996 24.8147 33.1361 26.0934 32.6047L26.2312 32.5477V31.9108L26.0934 31.8538C24.8147 31.3224 23.7741 29.5588 23.7097 27.423ZM29.3141 29.3412C27.803 29.9606 26.0477 29.9612 24.6565 29.4324C25.0409 30.5661 25.8058 31.3731 26.7058 31.5065C26.6638 31.5535 26.6411 31.611 26.641 31.67C26.641 31.8206 26.785 31.9429 26.9623 31.9429C27.1397 31.9429 27.2837 31.8206 27.2837 31.67C27.2837 31.6094 27.2599 31.5538 27.2206 31.5085C28.1498 31.3776 28.9384 30.527 29.3141 29.3412ZM26.9623 32.2776C26.785 32.2776 26.641 32.3999 26.641 32.5505C26.641 32.7011 26.785 32.8233 26.9623 32.8233C27.1397 32.8233 27.2837 32.7011 27.2837 32.5505C27.2837 32.3999 27.1397 32.2776 26.9623 32.2776ZM26.9623 33.1525C26.785 33.1525 26.641 33.2748 26.641 33.4253C26.641 33.5759 26.785 33.6982 26.9623 33.6982C27.1397 33.6982 27.2837 33.5759 27.2837 33.4253C27.2837 33.2748 27.1397 33.1525 26.9623 33.1525ZM26.9623 34.033C26.785 34.033 26.641 34.1552 26.641 34.3058C26.641 34.4564 26.785 34.5786 26.9623 34.5786C27.1397 34.5786 27.2837 34.4564 27.2837 34.3058C27.2837 34.1552 27.1397 34.033 26.9623 34.033ZM26.9656 34.9218C26.3568 34.928 25.754 35.4957 24.977 36.6068H28.9903C28.1897 35.4708 27.5744 34.9155 26.9656 34.9218Z" fill="black"/>
<path d="M26.9591 13.3225C28.077 13.3225 29.1699 13.5516 30.0994 13.9809C31.0289 14.4102 31.7534 15.0204 32.1812 15.7343C32.609 16.4482 32.721 17.2337 32.5029 17.9915C32.2848 18.7494 31.7464 19.4455 30.9559 19.9919C30.1654 20.5383 29.1583 20.9104 28.0618 21.0611C26.9654 21.2119 25.8289 21.1345 24.796 20.8388C23.7632 20.5431 22.8804 20.0424 22.2593 19.3999C21.6382 18.7574 21.3067 18.0021 21.3067 17.2294C21.3067 16.1932 21.9022 15.1995 22.9622 14.4668C24.0223 13.7341 25.46 13.3225 26.9591 13.3225ZM26.9591 11.7598C25.394 11.7598 23.864 12.0806 22.5627 12.6816C21.2613 13.2826 20.247 14.1368 19.6481 15.1362C19.0492 16.1357 18.8924 17.2354 19.1978 18.2964C19.5031 19.3574 20.2568 20.332 21.3635 21.0969C22.4702 21.8619 23.8802 22.3828 25.4153 22.5939C26.9503 22.8049 28.5414 22.6966 29.9874 22.2826C31.4334 21.8686 32.6693 21.1676 33.5388 20.2681C34.4083 19.3686 34.8724 18.3111 34.8724 17.2294C34.8724 15.7787 34.0387 14.3875 32.5547 13.3618C31.0706 12.336 29.0578 11.7598 26.9591 11.7598ZM38.2639 33.6381H36.0029V29.7313C36.0029 28.6951 35.4074 27.7014 34.3474 26.9687C33.2873 26.2361 31.8496 25.8244 30.3505 25.8244H23.5677C22.0685 25.8244 20.6308 26.2361 19.5708 26.9687C18.5108 27.7014 17.9153 28.6951 17.9153 29.7313V33.6381H15.6543V29.7313C15.6543 28.2807 16.488 26.8895 17.9721 25.8637C19.4561 24.838 21.4689 24.2617 23.5677 24.2617H30.3505C32.4493 24.2617 34.4621 24.838 35.9461 25.8637C37.4302 26.8895 38.2639 28.2807 38.2639 29.7313V33.6381Z" fill="black"/>
</svg>
