<svg width="55" height="56" viewBox="0 0 55 56" fill="none" xmlns="http://www.w3.org/2000/svg">
<ellipse cx="27.5" cy="27.9206" rx="27.5" ry="27.9206" fill="black"/>
<path d="M43.6284 19.6766C42.523 19.6766 41.627 18.8744 41.627 17.8847C41.627 16.895 42.523 16.0928 43.6284 16.0928C44.7339 16.0928 45.6299 16.895 45.6299 17.8847C45.6299 18.8744 44.7339 19.6766 43.6284 19.6766ZM42.9279 18.2431V18.6015H43.4283V18.9599H43.8286V18.6015H44.0287C44.1614 18.6015 44.2887 18.5543 44.3826 18.4703C44.4764 18.3862 44.5291 18.2723 44.5291 18.1535C44.5291 18.0347 44.4764 17.9207 44.3826 17.8367C44.2887 17.7527 44.1614 17.7055 44.0287 17.7055H43.2281C43.2016 17.7055 43.1762 17.6961 43.1574 17.6793C43.1386 17.6625 43.1281 17.6397 43.1281 17.6159C43.1281 17.5921 43.1386 17.5694 43.1574 17.5526C43.1762 17.5358 43.2016 17.5263 43.2281 17.5263H44.329V17.1679H43.8286V16.8095H43.4283V17.1679H43.2281C43.0954 17.1679 42.9682 17.2151 42.8743 17.2991C42.7805 17.3832 42.7278 17.4971 42.7278 17.6159C42.7278 17.7347 42.7805 17.8487 42.8743 17.9327C42.9682 18.0167 43.0954 18.0639 43.2281 18.0639H44.0287C44.0553 18.0639 44.0807 18.0733 44.0995 18.0901C44.1183 18.1069 44.1288 18.1297 44.1288 18.1535C44.1288 18.1773 44.1183 18.2 44.0995 18.2168C44.0807 18.2336 44.0553 18.2431 44.0287 18.2431H42.9279Z" fill="#FBBD18"/>
<path d="M43.2281 32.7577C42.1226 32.7577 41.2266 31.9554 41.2266 30.9658C41.2266 29.9761 42.1226 29.1738 43.2281 29.1738C44.3335 29.1738 45.2295 29.9761 45.2295 30.9658C45.2295 31.9554 44.3335 32.7577 43.2281 32.7577ZM42.5275 31.3241V31.6825H43.0279V32.0409H43.4282V31.6825H43.6284C43.7611 31.6825 43.8883 31.6353 43.9822 31.5513C44.076 31.4673 44.1287 31.3534 44.1287 31.2345C44.1287 31.1157 44.076 31.0018 43.9822 30.9178C43.8883 30.8338 43.7611 30.7866 43.6284 30.7866H42.8278C42.8012 30.7866 42.7758 30.7771 42.757 30.7603C42.7382 30.7435 42.7277 30.7207 42.7277 30.697C42.7277 30.6732 42.7382 30.6504 42.757 30.6336C42.7758 30.6168 42.8012 30.6074 42.8278 30.6074H43.9286V30.249H43.4282V29.8906H43.0279V30.249H42.8278C42.695 30.249 42.5678 30.2962 42.4739 30.3802C42.3801 30.4642 42.3274 30.5782 42.3274 30.697C42.3274 30.8158 42.3801 30.9297 42.4739 31.0137C42.5678 31.0978 42.695 31.1449 42.8278 31.1449H43.6284C43.6549 31.1449 43.6803 31.1544 43.6991 31.1712C43.7179 31.188 43.7284 31.2108 43.7284 31.2345C43.7284 31.2583 43.7179 31.2811 43.6991 31.2979C43.6803 31.3147 43.6549 31.3241 43.6284 31.3241H42.5275Z" fill="#FBBD18"/>
<path d="M43.2281 45.8387C42.1226 45.8387 41.2266 45.0365 41.2266 44.0468C41.2266 43.0571 42.1226 42.2549 43.2281 42.2549C44.3335 42.2549 45.2295 43.0571 45.2295 44.0468C45.2295 45.0365 44.3335 45.8387 43.2281 45.8387ZM42.5275 44.4052V44.7636H43.0279V45.122H43.4282V44.7636H43.6284C43.7611 44.7636 43.8883 44.7164 43.9822 44.6324C44.076 44.5484 44.1287 44.4344 44.1287 44.3156C44.1287 44.1968 44.076 44.0828 43.9822 43.9988C43.8883 43.9148 43.7611 43.8676 43.6284 43.8676H42.8278C42.8012 43.8676 42.7758 43.8582 42.757 43.8414C42.7382 43.8246 42.7277 43.8018 42.7277 43.778C42.7277 43.7543 42.7382 43.7315 42.757 43.7147C42.7758 43.6979 42.8012 43.6884 42.8278 43.6884H43.9286V43.33H43.4282V42.9717H43.0279V43.33H42.8278C42.695 43.33 42.5678 43.3772 42.4739 43.4613C42.3801 43.5453 42.3274 43.6592 42.3274 43.778C42.3274 43.8968 42.3801 44.0108 42.4739 44.0948C42.5678 44.1788 42.695 44.226 42.8278 44.226H43.6284C43.6549 44.226 43.6803 44.2354 43.6991 44.2522C43.7179 44.269 43.7284 44.2918 43.7284 44.3156C43.7284 44.3394 43.7179 44.3622 43.6991 44.379C43.6803 44.3958 43.6549 44.4052 43.6284 44.4052H42.5275Z" fill="#FBBD18"/>
<path d="M36.9243 14.8382C38.1131 14.8382 39.0759 13.7557 39.0759 12.4191C39.0759 11.0825 38.1131 10 36.9243 10C35.7355 10 34.7727 11.0825 34.7727 12.4191C34.7727 13.7557 35.7355 14.8382 36.9243 14.8382ZM36.9243 16.0478C35.4881 16.0478 32.6211 16.8582 32.6211 18.4669V19.6764H41.2275V18.4669C41.2275 16.8582 38.3605 16.0478 36.9243 16.0478Z" fill="#FBBD18"/>
<path d="M36.9243 27.9193C38.1131 27.9193 39.0759 26.8367 39.0759 25.5002C39.0759 24.1636 38.1131 23.0811 36.9243 23.0811C35.7355 23.0811 34.7727 24.1636 34.7727 25.5002C34.7727 26.8367 35.7355 27.9193 36.9243 27.9193ZM36.9243 29.1288C35.4881 29.1288 32.6211 29.9392 32.6211 31.5479V32.7575H41.2275V31.5479C41.2275 29.9392 38.3605 29.1288 36.9243 29.1288Z" fill="#FBBD18"/>
<path d="M36.9243 41.0003C38.1131 41.0003 39.0759 39.9178 39.0759 38.5812C39.0759 37.2447 38.1131 36.1621 36.9243 36.1621C35.7355 36.1621 34.7727 37.2447 34.7727 38.5812C34.7727 39.9178 35.7355 41.0003 36.9243 41.0003ZM36.9243 42.2099C35.4881 42.2099 32.6211 43.0203 32.6211 44.629V45.8385H41.2275V44.629C41.2275 43.0203 38.3605 42.2099 36.9243 42.2099Z" fill="#FBBD18"/>
<path d="M16.8859 29.1798L16.8862 29.1799C17.5751 29.4945 17.9818 30.1215 17.9818 30.7904V32.4624H6.22732L6.22733 30.7904L6.22732 30.7887C6.2249 30.4613 6.32374 30.1377 6.51576 29.8537C6.70796 29.5694 6.98665 29.3351 7.32352 29.1797C8.5807 28.6035 10.2119 28.1347 12.1046 28.1347C13.9974 28.1347 15.6287 28.6036 16.8859 29.1798ZM15.1701 23.7715L15.1094 23.9096L15.213 24.0192C15.5137 24.3374 15.6926 24.7409 15.6926 25.1748C15.6926 26.1603 14.7962 26.997 13.6307 26.997H10.5784C9.41298 26.997 8.51652 26.1603 8.51652 25.1748C8.51652 24.7409 8.69544 24.3374 8.9962 24.0192L9.09979 23.9096L9.03905 23.7715C8.95096 23.5713 8.89808 23.3497 8.89805 23.1254C8.89876 22.7707 9.01691 22.4217 9.2413 22.1225C9.46603 21.8228 9.78782 21.5862 10.1685 21.4462L10.2181 21.4279L10.2546 21.3897C10.6999 20.9224 11.3577 20.6199 12.1046 20.6199C12.8514 20.6199 13.5092 20.9224 13.9546 21.3897L13.991 21.4279L14.0406 21.4462C14.4213 21.5862 14.7431 21.8228 14.9679 22.1225C15.1922 22.4216 15.3103 22.7706 15.3111 23.1253C15.3111 23.3496 15.2582 23.5713 15.1701 23.7715Z" fill="#FBBD18" stroke="black" stroke-width="0.454545"/>
<path d="M29.1935 30.6756C29.3266 30.5425 29.3266 30.3266 29.1935 30.1935L27.0239 28.024C26.8908 27.8908 26.675 27.8908 26.5418 28.024C26.4087 28.1571 26.4087 28.373 26.5418 28.5061L28.4703 30.4346L26.5418 32.363C26.4087 32.4962 26.4087 32.712 26.5418 32.8452C26.675 32.9783 26.8908 32.9783 27.0239 32.8452L29.1935 30.6756ZM21.8789 30.7755H28.9524V30.0937H21.8789V30.7755Z" fill="#F2A71B"/>
<path d="M30.9592 21.0363C30.9884 20.86 30.8542 20.6909 30.6594 20.6587L27.4857 20.1329C27.2909 20.1007 27.1094 20.2174 27.0802 20.3937C27.051 20.57 27.1852 20.739 27.3799 20.7713L30.201 21.2386L29.778 23.7921C29.7488 23.9683 29.883 24.1374 30.0778 24.1697C30.2725 24.2019 30.4541 24.0852 30.4833 23.9089L30.9592 21.0363ZM22.0245 26.8998L30.8185 21.2449L30.3946 20.7109L21.6005 26.3658L22.0245 26.8998Z" fill="#F2A71B"/>
<path d="M30.9592 41.1659C30.9884 41.3421 30.8542 41.5112 30.6594 41.5435L27.4857 42.0692C27.2909 42.1015 27.1094 41.9847 27.0802 41.8085C27.051 41.6322 27.1852 41.4631 27.3799 41.4309L30.201 40.9635L29.778 38.4101C29.7488 38.2338 29.883 38.0647 30.0778 38.0325C30.2725 38.0002 30.4541 38.117 30.4833 38.2932L30.9592 41.1659ZM22.0245 35.3023L30.8185 40.9573L30.3946 41.4913L21.6005 35.8363L22.0245 35.3023Z" fill="#F2A71B"/>
</svg>
