<svg width="90" height="92" viewBox="0 0 90 92" fill="none" xmlns="http://www.w3.org/2000/svg">
<path d="M88.8291 46.0372C88.8291 70.8111 69.0504 90.8812 44.6684 90.8812C20.2863 90.8812 0.507595 70.8111 0.507595 46.0372C0.507595 21.2632 20.2863 1.19314 44.6684 1.19314C69.0504 1.19314 88.8291 21.2632 88.8291 46.0372Z" fill="white" stroke="#B0ABAB" stroke-width="1.01519"/>
<path d="M55.7517 40.4489V19.2637H61.1097V40.4489V41.0683L61.5443 40.627L68.9887 33.0687L72.7383 36.8757L58.4307 51.4022L44.1231 36.8757L47.8727 33.0687L55.3171 40.627L55.7517 41.0683V40.4489ZM55.7517 66.6521V57.973H61.1097V72.6073C61.1097 75.7462 58.5802 78.3088 55.4979 78.3088H26.1702C23.088 78.3088 20.5585 75.7462 20.5585 72.6073V19.01C20.5585 15.8711 23.088 13.3085 26.1702 13.3085H46.4458V24.7114H26.1702H25.9164V24.9652V66.6521V66.9059H26.1702H55.4979H55.7517V66.6521Z" fill="#F2A71B" stroke="black" stroke-width="0.507595"/>
</svg>
