<svg width="90" height="92" viewBox="0 0 90 92" fill="none" xmlns="http://www.w3.org/2000/svg">
<path d="M88.8291 45.7012C88.8291 70.4752 69.0504 90.5453 44.6684 90.5453C20.2863 90.5453 0.507595 70.4752 0.507595 45.7012C0.507595 20.9273 20.2863 0.857204 44.6684 0.857204C69.0504 0.857204 88.8291 20.9273 88.8291 45.7012Z" fill="white" stroke="#B0ABAB" stroke-width="1.01519"/>
<path d="M62.2292 22.7938L18.5306 13.748L46.5317 36.147L62.2292 22.7938Z" fill="#F2A71B"/>
<path d="M49.0772 37.4392L65.199 22.7938L74.1085 32.701L49.0772 37.4392Z" fill="#F2A71B"/>
<path d="M74.1085 36.147L47.3802 40.8852L43.5618 74.4835L74.1085 36.147Z" fill="#F2A71B"/>
<path d="M44.8346 39.1622L17.2578 15.9018L41.0163 76.6373L44.8346 39.1622Z" fill="#F2A71B"/>
<path d="M62.2292 22.7938L18.5306 13.748L46.5317 36.147L62.2292 22.7938Z" stroke="black" stroke-width="0.848517"/>
<path d="M49.0772 37.4392L65.199 22.7938L74.1085 32.701L49.0772 37.4392Z" stroke="black" stroke-width="0.848517"/>
<path d="M74.1085 36.147L47.3802 40.8852L43.5618 74.4835L74.1085 36.147Z" stroke="black" stroke-width="0.848517"/>
<path d="M44.8346 39.1622L17.2578 15.9018L41.0163 76.6373L44.8346 39.1622Z" stroke="black" stroke-width="0.848517"/>
</svg>
