<svg width="90" height="92" viewBox="0 0 90 92" fill="none" xmlns="http://www.w3.org/2000/svg">
<path d="M88.8291 45.7813C88.8291 70.5553 69.0504 90.6254 44.6684 90.6254C20.2863 90.6254 0.507595 70.5553 0.507595 45.7813C0.507595 21.0073 20.2863 0.937283 44.6684 0.937283C69.0504 0.937283 88.8291 21.0073 88.8291 45.7813Z" fill="white" stroke="#B0ABAB" stroke-width="1.01519"/>
<path d="M65.8479 27.0716V27.6909V30.0379C65.8479 30.6484 66.0868 31.2331 66.5108 31.6636C66.9347 32.094 67.5089 32.3351 68.1067 32.3351C68.7045 32.3351 69.2786 32.094 69.7025 31.6636C70.1266 31.2331 70.3655 30.6484 70.3655 30.0379V21.5344C70.3655 20.9239 70.1266 20.3392 69.7025 19.9087C69.2786 19.4783 68.7045 19.2372 68.1067 19.2372H59.7314C59.1335 19.2372 58.5594 19.4783 58.1355 19.9087C57.7115 20.3392 57.4726 20.9239 57.4726 21.5344C57.4726 22.1449 57.7115 22.7297 58.1355 23.1602C58.5594 23.5906 59.1335 23.8317 59.7314 23.8317H62.0429H62.6492L62.2238 24.2636L49.0243 37.665L48.8434 37.8485L48.6626 37.665L40.3879 29.2637C39.9641 28.8339 39.3904 28.5932 38.7931 28.5932C38.1958 28.5932 37.6221 28.8339 37.1983 29.2636L65.8479 27.0716ZM65.8479 27.0716L65.4133 27.5128L50.4383 42.7168C50.0145 43.1466 49.4408 43.3873 48.8434 43.3873C48.2461 43.3873 47.6724 43.1466 47.2486 42.7168L38.9739 34.3156L38.7931 34.132L38.6122 34.3156L24.4747 48.6693L24.4746 48.6692L24.4685 48.6758C24.2615 48.9014 24.0121 49.0821 23.7353 49.2073C23.4585 49.3325 23.1598 49.3998 22.8571 49.4052C22.5543 49.4107 22.2535 49.3541 21.9726 49.2389C21.6916 49.1237 21.4361 48.9521 21.2214 48.7341C21.0067 48.5161 20.8373 48.2563 20.7234 47.9699C20.6095 47.6836 20.5535 47.3768 20.5588 47.0678C20.5642 46.7588 20.6308 46.4541 20.7546 46.1721C20.8784 45.89 21.0567 45.6365 21.2788 45.4264L21.2789 45.4265L21.2852 45.4201L37.1982 29.2637L65.8479 27.0716ZM22.88 60.0537C23.4778 60.0537 24.0519 60.2947 24.4758 60.7251L24.6566 60.547L24.4758 60.7251C24.8999 61.1557 25.1388 61.7404 25.1388 62.3509V70.8543C25.1388 71.4648 24.8999 72.0496 24.4758 72.4801C24.0519 72.9105 23.4778 73.1516 22.88 73.1516C22.2821 73.1516 21.708 72.9105 21.2841 72.4801C20.8601 72.0496 20.6212 71.4648 20.6212 70.8543V62.3509C20.6212 61.7404 20.8601 61.1557 21.2841 60.7251L21.1033 60.547L21.2841 60.7251C21.708 60.2947 22.2821 60.0537 22.88 60.0537ZM37.8763 50.521C38.3004 50.9516 38.5393 51.5363 38.5393 52.1468V70.8543C38.5393 71.4648 38.3004 72.0496 37.8763 72.4801C37.4524 72.9105 36.8783 73.1516 36.2805 73.1516C35.6827 73.1516 35.1085 72.9105 34.6846 72.4801C34.2606 72.0496 34.0217 71.4648 34.0217 70.8543V52.1468C34.0217 51.5363 34.2606 50.9516 34.6846 50.521C35.1085 50.0906 35.6827 49.8495 36.2805 49.8495C36.8783 49.8495 37.4524 50.0906 37.8763 50.521ZM49.681 56.6523C50.2788 56.6523 50.8529 56.8934 51.2768 57.3238C51.7009 57.7543 51.9398 58.339 51.9398 58.9495V70.8543C51.9398 71.4648 51.7009 72.0496 51.2768 72.4801C50.8529 72.9105 50.2788 73.1516 49.681 73.1516C49.0832 73.1516 48.509 72.9105 48.0851 72.4801C47.6611 72.0496 47.4222 71.4648 47.4222 70.8543V58.9495C47.4222 58.339 47.6611 57.7543 48.0851 57.3238C48.509 56.8934 49.0832 56.6523 49.681 56.6523ZM64.6773 43.7183C65.1014 44.1488 65.3403 44.7335 65.3403 45.344V70.8543C65.3403 71.4648 65.1014 72.0496 64.6773 72.4801C64.2534 72.9105 63.6793 73.1516 63.0815 73.1516C62.4837 73.1516 61.9095 72.9105 61.4856 72.4801C61.0616 72.0496 60.8227 71.4648 60.8227 70.8543V45.344C60.8227 44.7335 61.0616 44.1488 61.4856 43.7183C61.9095 43.2879 62.4837 43.0468 63.0815 43.0468C63.6793 43.0468 64.2534 43.2879 64.6773 43.7183Z" fill="#F2A71B" stroke="black" stroke-width="0.507595"/>
</svg>
