<svg width="48" height="48" viewBox="0 0 48 48" fill="none" xmlns="http://www.w3.org/2000/svg">
<circle cx="24" cy="24" r="24" fill="#F2A71B"/>
<path d="M36.3073 26.8568H26.0509V37.1158C26.0509 37.66 25.8348 38.1819 25.4501 38.5667C25.0654 38.9515 24.5436 39.1677 23.9996 39.1677C23.4556 39.1677 22.9338 38.9515 22.5491 38.5667C22.1644 38.1819 21.9483 37.66 21.9483 37.1158V26.8568H11.6919C11.1479 26.8568 10.6261 26.6407 10.2414 26.2559C9.85674 25.8711 9.64062 25.3492 9.64062 24.805C9.64062 24.2608 9.85674 23.739 10.2414 23.3542C10.6261 22.9694 11.1479 22.7532 11.6919 22.7532H21.9483V12.4942C21.9483 11.95 22.1644 11.4281 22.5491 11.0433C22.9338 10.6586 23.4556 10.4424 23.9996 10.4424C24.5436 10.4424 25.0654 10.6586 25.4501 11.0433C25.8348 11.4281 26.0509 11.95 26.0509 12.4942V22.7532H36.3073C36.8513 22.7532 37.3731 22.9694 37.7578 23.3542C38.1425 23.739 38.3586 24.2608 38.3586 24.805C38.3586 25.3492 38.1425 25.8711 37.7578 26.2559C37.3731 26.6407 36.8513 26.8568 36.3073 26.8568Z" fill="black"/>
</svg>
