<svg width="18" height="21" viewBox="0 0 18 21" fill="none" xmlns="http://www.w3.org/2000/svg">
<path d="M8.89822 20.8276C7.6673 20.8276 6.51053 20.5657 5.42791 20.042C4.3453 19.5182 3.40357 18.808 2.60273 17.9113M8.89822 20.8276L8.89849 1.38672C10.0557 1.38676 11.1377 1.63237 12.1508 2.12248C13.1745 2.61776 14.0634 3.28819 14.8207 4.136C15.5782 4.98484 16.1821 5.98711 16.6296 7.14848C17.0736 8.30069 17.297 9.53547 17.2964 10.857V10.8572C17.2964 12.1787 17.0727 13.4136 16.6287 14.5659C16.1811 15.7273 15.5775 16.7296 14.8205 17.5785C14.0633 18.4269 13.1744 19.0976 12.1508 19.5929C11.1378 20.083 10.0557 20.3283 8.89849 20.3276H8.89822C7.74089 20.3276 6.65877 20.082 5.64567 19.5919C4.62196 19.0966 3.733 18.4262 2.97577 17.5784L2.60273 17.9113M8.89822 20.8276C10.1291 20.8283 11.2859 20.5667 12.3685 20.043M8.89822 20.8276L12.3685 20.043M2.60273 17.9113L2.97565 17.5782M2.60273 17.9113C1.80189 17.0139 1.16804 15.9587 0.70118 14.7457L2.97565 17.5782M2.97565 17.5782C2.2182 16.7295 1.61472 15.7273 1.16781 14.5661C0.724328 13.4137 0.500593 12.1788 0.5 10.8572L2.97565 17.5782ZM12.3685 20.043C13.4511 19.5192 14.3929 18.8086 15.1937 17.9113L12.3685 20.043ZM7.27942 15.7765L7.65247 16.1945L8.02551 15.7765L14.2988 8.74734L14.5959 8.41441L14.2988 8.08149L13.053 6.68563L12.68 6.26763L12.3069 6.68563L7.65247 11.9009L5.48952 9.47735L5.11647 9.05936L4.74343 9.47735L3.49768 10.8732L3.20056 11.2061L3.49768 11.5391L7.27942 15.7765ZM1.16774 7.14849C1.61527 5.9871 2.21882 4.98483 2.97577 4.136L0.5 10.857C0.500024 9.53549 0.723735 8.3007 1.16774 7.14849ZM2.97589 4.13587C3.73307 3.28748 4.62193 2.61715 5.64545 2.12259C6.65859 1.63304 7.7408 1.38738 8.89822 1.38672L2.97589 4.13587Z" fill="black" stroke="#FBB83D"/>
</svg>
