<svg width="18" height="21" viewBox="0 0 18 21" fill="none" xmlns="http://www.w3.org/2000/svg">
<path d="M0.712686 8.79867L0.713741 8.79749L7.83126 0.822309C8.15206 0.472154 8.53117 0.316406 8.90044 0.316406C9.2697 0.316406 9.64881 0.472149 9.96961 0.822292C9.96995 0.822662 9.97029 0.823033 9.97063 0.823404L17.0871 8.7975L17.0882 8.79867C17.7051 9.48117 17.7051 10.5926 17.0882 11.2751L17.0871 11.2762L9.96856 19.2526L9.96752 19.2538C9.37299 19.9285 8.42789 19.9285 7.83337 19.2538L7.83231 19.2526L0.713744 11.2762L0.712683 11.2751C0.0957724 10.5926 0.0957724 9.48117 0.712686 8.79867ZM8.01062 4.80164H7.76062V5.05164V11.0339V11.2839H8.01062H9.79026H10.0403V11.0339V5.05164V4.80164H9.79026H8.01062ZM8.01062 12.778H7.76062V13.028V15.0221V15.2721H8.01062H9.79026H10.0403V15.0221V13.028V12.778H9.79026H8.01062Z" fill="black" stroke="#FBB83D" stroke-width="0.5"/>
</svg>
