<svg width="32" height="27" viewBox="0 0 32 27" fill="none" xmlns="http://www.w3.org/2000/svg">
<path d="M28.6024 0.521556C28.6024 0.521556 31.464 -0.594337 31.2246 2.11548C31.1458 3.23137 30.4306 7.13736 29.8737 11.3615L27.966 23.8757C27.966 23.8757 27.8069 25.709 26.3758 26.028C24.9454 26.3462 22.799 24.9121 22.4013 24.5932C22.0831 24.3538 16.4396 20.7667 14.4523 19.0137C13.8955 18.5349 13.2591 17.5789 14.5319 16.463L22.8778 8.4919C23.8317 7.53584 24.7855 5.30406 20.8111 8.01387L9.6816 15.5857C9.6816 15.5857 8.40956 16.3834 6.0253 15.666L0.857583 14.0714C0.857583 14.0714 -1.05011 12.8759 2.20917 11.6805C10.1589 7.93432 19.9368 4.10862 28.6009 0.521556H28.6024Z" fill="#FBBD18"/>
</svg>
