<svg width="29" height="22" viewBox="0 0 29 22" fill="none" xmlns="http://www.w3.org/2000/svg">
<path d="M11.952 15.741L19.218 11.2595L11.952 6.77804V15.741ZM28.136 4.04434C28.318 4.74644 28.444 5.68755 28.528 6.88261C28.626 8.07767 28.668 9.10841 28.668 10.0047L28.752 11.2595C28.752 14.531 28.528 16.9361 28.136 18.4747C27.786 19.8192 26.974 20.6856 25.714 21.059C25.056 21.2532 23.852 21.3877 22.004 21.4773C20.184 21.5819 18.518 21.6267 16.978 21.6267L14.752 21.7163C8.88595 21.7163 5.23195 21.4773 3.78995 21.059C2.52995 20.6856 1.71795 19.8192 1.36795 18.4747C1.18595 17.7726 1.05995 16.8315 0.975953 15.6364C0.877953 14.4414 0.835953 13.4106 0.835953 12.5143L0.751953 11.2595C0.751953 7.98804 0.975953 5.58298 1.36795 4.04434C1.71795 2.69989 2.52995 1.83347 3.78995 1.46002C4.44795 1.26582 5.65195 1.13138 7.49995 1.04175C9.31995 0.937179 10.986 0.892364 12.526 0.892364L14.752 0.802734C20.618 0.802734 24.272 1.04175 25.714 1.46002C26.974 1.83347 27.786 2.69989 28.136 4.04434Z" fill="#FBBD18"/>
</svg>
