<svg width="50" height="49" viewBox="0 0 50 49" fill="none" xmlns="http://www.w3.org/2000/svg">
<rect x="1.15373" y="0.245524" width="47.6317" height="47.6317" rx="10.0665" fill="black" stroke="#656060" stroke-width="0.491049"/>
<path d="M18.4396 12.178C18.4396 11.1459 19.2735 10.312 20.3056 10.312C21.3377 10.312 22.1716 11.1459 22.1716 12.178V14.044H24.0376V12.178C24.0376 11.1459 24.8714 10.312 25.9035 10.312C26.9357 10.312 27.7695 11.1459 27.7695 12.178V14.044C27.7695 14.1314 27.7637 14.2247 27.752 14.3064C30.4577 15.1053 32.4345 17.6068 32.4345 20.5749C32.4345 21.9861 31.9855 23.2923 31.2274 24.3594C33.0759 25.514 34.3005 27.5665 34.3005 29.9048C34.3005 33.5144 31.379 36.4358 27.7695 36.4358V38.3018C27.7695 39.3339 26.9357 40.1678 25.9035 40.1678C24.8714 40.1678 24.0376 39.3339 24.0376 38.3018V36.4358H22.1716V38.3018C22.1716 39.3339 21.3377 40.1678 20.3056 40.1678C19.2735 40.1678 18.4396 39.3339 18.4396 38.3018V36.4358H18.0722C16.7311 36.4358 15.6406 35.3454 15.6406 34.0042V16.2365C15.6406 15.0236 16.6203 14.044 17.8332 14.044H18.4396V12.178ZM19.3726 23.3739H25.9035C27.4488 23.3739 28.7025 22.1202 28.7025 20.5749C28.7025 19.0297 27.4488 17.7759 25.9035 17.7759H19.3726V23.3739ZM25.9035 27.1059H19.3726V32.7038H27.7695C29.3148 32.7038 30.5685 31.4501 30.5685 29.9048C30.5685 28.3596 29.3148 27.1059 27.7695 27.1059H25.9035Z" fill="#FBBD18"/>
</svg>
