<svg width="50" height="49" viewBox="0 0 50 49" fill="none" xmlns="http://www.w3.org/2000/svg">
<rect x="1.18498" y="0.245524" width="47.6317" height="47.6317" rx="10.0665" fill="black" stroke="#656060" stroke-width="0.491049"/>
<path d="M36.6044 11.5216C36.6044 11.5216 39.4659 10.4057 39.2265 13.1155C39.1477 14.2314 38.4325 18.1374 37.8757 22.3615L35.968 34.8757C35.968 34.8757 35.8089 36.709 34.3777 37.028C32.9473 37.3462 30.801 35.9121 30.4032 35.5932C30.0851 35.3538 24.4415 31.7667 22.4543 30.0137C21.8974 29.5349 21.261 28.5789 22.5338 27.463L30.8798 19.4919C31.8337 18.5358 32.7875 16.3041 28.813 19.0139L17.6836 26.5857C17.6836 26.5857 16.4115 27.3834 14.0273 26.666L8.85954 25.0714C8.85954 25.0714 6.95184 23.8759 10.2111 22.6805C18.1608 18.9343 27.9387 15.1086 36.6029 11.5216H36.6044Z" fill="#FBBD18"/>
</svg>
