<svg width="50" height="49" viewBox="0 0 50 49" fill="none" xmlns="http://www.w3.org/2000/svg">
<rect x="1.21427" y="0.245524" width="47.6317" height="47.6317" rx="10.0665" fill="black" stroke="#656060" stroke-width="0.491049"/>
<path d="M39.271 13.5908C38.2408 14.1646 37.1303 14.5417 35.9797 14.722C37.1571 13.8531 38.0669 12.476 38.495 10.8202C37.3845 11.6399 36.1536 12.2137 34.8558 12.5416C33.7988 11.1317 32.3137 10.312 30.6279 10.312C27.4837 10.312 24.9149 13.4597 24.9149 17.345C24.9149 17.9024 24.9684 18.4434 25.0621 18.9517C20.299 18.6566 16.0577 15.8532 13.2346 11.6071C12.7396 12.64 12.4586 13.8531 12.4586 15.1318C12.4586 17.5746 13.4621 19.7386 15.0141 20.9681C14.0642 20.9681 13.1811 20.6402 12.4051 20.1484V20.1976C12.4051 23.6075 14.3853 26.4601 17.0076 27.0995C16.1657 27.3818 15.2818 27.4211 14.4254 27.2142C14.7888 28.6118 15.5005 29.8347 16.4605 30.711C17.4204 31.5873 18.5803 32.0729 19.7772 32.0996C17.7484 34.0676 15.2335 35.1314 12.646 35.1161C12.1911 35.1161 11.7362 35.0833 11.2812 35.0178C13.8233 37.0178 16.8471 38.1818 20.0849 38.1818C30.6279 38.1818 36.4212 27.4601 36.4212 18.1647C36.4212 17.8533 36.4212 17.5582 36.4078 17.2467C37.5317 16.263 38.495 15.0171 39.271 13.5908Z" fill="#FBBD18"/>
</svg>
