<svg width="49" height="49" viewBox="0 0 49 49" fill="none" xmlns="http://www.w3.org/2000/svg">
<rect x="1.12248" y="0.245524" width="47.6317" height="47.6317" rx="10.0665" fill="black" stroke="#656060" stroke-width="0.491049"/>
<path d="M23.952 26.741L31.218 22.2595L23.952 17.778V26.741ZM40.136 15.0443C40.318 15.7464 40.444 16.6875 40.528 17.8826C40.626 19.0777 40.668 20.1084 40.668 21.0047L40.752 22.2595C40.752 25.531 40.528 27.9361 40.136 29.4747C39.786 30.8192 38.974 31.6856 37.714 32.059C37.056 32.2532 35.852 32.3877 34.004 32.4773C32.184 32.5819 30.518 32.6267 28.978 32.6267L26.752 32.7163C20.886 32.7163 17.232 32.4773 15.79 32.059C14.53 31.6856 13.718 30.8192 13.368 29.4747C13.186 28.7726 13.06 27.8315 12.976 26.6364C12.878 25.4414 12.836 24.4106 12.836 23.5143L12.752 22.2595C12.752 18.988 12.976 16.583 13.368 15.0443C13.718 13.6999 14.53 12.8335 15.79 12.46C16.448 12.2658 17.652 12.1314 19.5 12.0417C21.32 11.9372 22.986 11.8924 24.526 11.8924L26.752 11.8027C32.618 11.8027 36.272 12.0417 37.714 12.46C38.974 12.8335 39.786 13.6999 40.136 15.0443Z" fill="#FBBD18"/>
</svg>
