<svg width="46" height="46" viewBox="0 0 46 46" fill="none" xmlns="http://www.w3.org/2000/svg">
<path d="M2.55556 25.663H17.8889C18.5667 25.663 19.2167 25.4031 19.6959 24.9404C20.1752 24.4778 20.4444 23.8503 20.4444 23.1961V3.46102C20.4444 2.80677 20.1752 2.1793 19.6959 1.71667C19.2167 1.25404 18.5667 0.994141 17.8889 0.994141H2.55556C1.87778 0.994141 1.22776 1.25404 0.748505 1.71667C0.269245 2.1793 0 2.80677 0 3.46102V23.1961C0 23.8503 0.269245 24.4778 0.748505 24.9404C1.22776 25.4031 1.87778 25.663 2.55556 25.663ZM0 42.9311C0 43.5854 0.269245 44.2129 0.748505 44.6755C1.22776 45.1381 1.87778 45.398 2.55556 45.398H17.8889C18.5667 45.398 19.2167 45.1381 19.6959 44.6755C20.1752 44.2129 20.4444 43.5854 20.4444 42.9311V33.0636C20.4444 32.4094 20.1752 31.7819 19.6959 31.3193C19.2167 30.8566 18.5667 30.5967 17.8889 30.5967H2.55556C1.87778 30.5967 1.22776 30.8566 0.748505 31.3193C0.269245 31.7819 0 32.4094 0 33.0636V42.9311ZM25.5556 42.9311C25.5556 43.5854 25.8248 44.2129 26.3041 44.6755C26.7833 45.1381 27.4333 45.398 28.1111 45.398H43.4444C44.1222 45.398 44.7722 45.1381 45.2515 44.6755C45.7308 44.2129 46 43.5854 46 42.9311V25.663C46 25.0087 45.7308 24.3812 45.2515 23.9186C44.7722 23.456 44.1222 23.1961 43.4444 23.1961H28.1111C27.4333 23.1961 26.7833 23.456 26.3041 23.9186C25.8248 24.3812 25.5556 25.0087 25.5556 25.663V42.9311ZM28.1111 18.2623H43.4444C44.1222 18.2623 44.7722 18.0024 45.2515 17.5398C45.7308 17.0772 46 16.4497 46 15.7954V3.46102C46 2.80677 45.7308 2.1793 45.2515 1.71667C44.7722 1.25404 44.1222 0.994141 43.4444 0.994141H28.1111C27.4333 0.994141 26.7833 1.25404 26.3041 1.71667C25.8248 2.1793 25.5556 2.80677 25.5556 3.46102V15.7954C25.5556 16.4497 25.8248 17.0772 26.3041 17.5398C26.7833 18.0024 27.4333 18.2623 28.1111 18.2623Z" fill="#FBBD18"/>
</svg>
