<svg width="14" height="14" viewBox="0 0 14 14" fill="none" xmlns="http://www.w3.org/2000/svg">
<path d="M1.55556 14C1.12778 14 0.761444 13.8478 0.456555 13.5434C0.152185 13.2386 0 12.8722 0 12.4444V1.55556C0 1.12778 0.152185 0.761444 0.456555 0.456555C0.761444 0.152185 1.12778 0 1.55556 0H4.66667C5.09444 0 5.46078 0.152185 5.76567 0.456555C6.07004 0.761444 6.22222 1.12778 6.22222 1.55556V12.4444C6.22222 12.8722 6.07004 13.2386 5.76567 13.5434C5.46078 13.8478 5.09444 14 4.66667 14H1.55556ZM9.33333 5.44444C8.90556 5.44444 8.53948 5.292 8.23511 4.98711C7.93022 4.68274 7.77778 4.31667 7.77778 3.88889V1.55556C7.77778 1.12778 7.93022 0.761444 8.23511 0.456555C8.53948 0.152185 8.90556 0 9.33333 0H12.4444C12.8722 0 13.2386 0.152185 13.5434 0.456555C13.8478 0.761444 14 1.12778 14 1.55556V3.88889C14 4.31667 13.8478 4.68274 13.5434 4.98711C13.2386 5.292 12.8722 5.44444 12.4444 5.44444H9.33333ZM9.33333 14C8.90556 14 8.53948 13.8478 8.23511 13.5434C7.93022 13.2386 7.77778 12.8722 7.77778 12.4444V8.55556C7.77778 8.12778 7.93022 7.76144 8.23511 7.45656C8.53948 7.15219 8.90556 7 9.33333 7H12.4444C12.8722 7 13.2386 7.15219 13.5434 7.45656C13.8478 7.76144 14 8.12778 14 8.55556V12.4444C14 12.8722 13.8478 13.2386 13.5434 13.5434C13.2386 13.8478 12.8722 14 12.4444 14H9.33333Z" fill="#F2A71B"/>
</svg>
