<svg width="14" height="14" viewBox="0 0 14 14" fill="none" xmlns="http://www.w3.org/2000/svg">
<path d="M10.6667 8.66667H2.66667L0 11.3333V0.666667C0 0.489856 0.0702379 0.320286 0.195262 0.195262C0.320286 0.0702379 0.489856 0 0.666667 0H10.6667C10.8435 0 11.013 0.0702379 11.1381 0.195262C11.2631 0.320286 11.3333 0.489856 11.3333 0.666667V8C11.3333 8.17681 11.2631 8.34638 11.1381 8.47141C11.013 8.59643 10.8435 8.66667 10.6667 8.66667ZM14 4.66667V14L11.3333 11.3333H4C3.82319 11.3333 3.65362 11.2631 3.5286 11.1381C3.40357 11.013 3.33333 10.8435 3.33333 10.6667V10H12.6667V4H13.3333C13.5101 4 13.6797 4.07024 13.8047 4.19526C13.9298 4.32029 14 4.48986 14 4.66667ZM4.12667 1.33333C3.54667 1.33333 3.08 1.46667 2.72 1.72667C2.37333 2 2.2 2.38 2.20667 2.90667L2.21333 2.92667H3.5C3.50667 2.72667 3.56667 2.57333 3.68667 2.46667C3.81012 2.3643 3.96633 2.30986 4.12667 2.31333C4.33333 2.31333 4.50667 2.38 4.62667 2.5C4.74667 2.62667 4.8 2.8 4.8 3C4.8 3.21333 4.75333 3.39333 4.64667 3.54667C4.55333 3.7 4.41333 3.83333 4.24 3.94C3.9 4.16667 3.66667 4.36667 3.54 4.54667C3.40667 4.72 3.33333 5 3.33333 5.33333H4.66667C4.66667 5.12667 4.69333 4.96 4.75333 4.84C4.81333 4.72 4.92667 4.6 5.09333 4.49333C5.39333 4.33333 5.64 4.14 5.83333 3.87333C6.02667 3.60667 6.12667 3.33333 6.12667 3C6.12667 2.49333 5.94667 2.08667 5.58667 1.78667C5.23333 1.48667 4.74667 1.33333 4.12667 1.33333ZM3.33333 6V7.33333H4.66667V6H3.33333ZM7.33333 7.33333H8.66667V6H7.33333V7.33333ZM7.33333 1.33333V5.33333H8.66667V1.33333H7.33333Z" fill="#F2A71B"/>
</svg>
