<svg width="14" height="14" viewBox="0 0 14 14" fill="none" xmlns="http://www.w3.org/2000/svg">
<path d="M6.03135 3.11133C6.19141 3.11133 6.33459 3.21096 6.38849 3.36014L6.77285 4.4256C6.91059 4.4599 7.02873 4.4942 7.12891 4.53013C7.23834 4.56933 7.37934 4.62868 7.55356 4.7098L8.4486 4.23614C8.52165 4.19743 8.60529 4.18346 8.68696 4.19632C8.76863 4.20918 8.84393 4.24818 8.90156 4.30746L9.6888 5.12139C9.79333 5.22974 9.82273 5.38817 9.76393 5.52646L9.34418 6.51025C9.41386 6.6382 9.4694 6.74763 9.51186 6.8391C9.55759 6.93873 9.61421 7.07593 9.68172 7.25287L10.6601 7.67208C10.807 7.7347 10.898 7.88169 10.8882 8.03904L10.8163 9.16875C10.8114 9.24214 10.785 9.31247 10.7405 9.37103C10.696 9.42958 10.6353 9.47378 10.5659 9.49813L9.63926 9.82752C9.61258 9.95546 9.58481 10.0649 9.55542 10.1574C9.508 10.3004 9.45386 10.441 9.39318 10.5788L9.85866 11.6078C9.89151 11.6801 9.90036 11.761 9.8839 11.8387C9.86744 11.9164 9.82654 11.9868 9.7672 12.0396L8.88196 12.8301C8.82366 12.8819 8.75091 12.9147 8.67346 12.9241C8.59601 12.9334 8.51755 12.9189 8.4486 12.8824L7.53614 12.3989C7.39338 12.4745 7.24611 12.5412 7.09515 12.5987L6.69663 12.7479L6.34276 13.7279C6.31654 13.7996 6.26923 13.8618 6.20705 13.9062C6.14487 13.9506 6.07072 13.9752 5.99433 13.9767L4.95992 14.0001C4.8815 14.0021 4.80437 13.9798 4.73915 13.9363C4.67392 13.8927 4.62381 13.83 4.5957 13.7567L4.17867 12.6531C4.03638 12.6045 3.8955 12.5519 3.75619 12.4953C3.64225 12.4459 3.53004 12.3927 3.41974 12.3357L2.38533 12.7778C2.31717 12.8069 2.24203 12.8155 2.16905 12.8027C2.09607 12.7898 2.02841 12.756 1.97429 12.7054L1.20882 11.9873C1.15183 11.9341 1.11302 11.8643 1.09788 11.7878C1.08274 11.7113 1.09203 11.6319 1.12444 11.561L1.56923 10.5919C1.51008 10.4771 1.45524 10.3602 1.40482 10.2413C1.34597 10.0958 1.2915 9.94853 1.24149 9.79975L0.266969 9.50303C0.187755 9.47909 0.118664 9.42966 0.0704254 9.36242C0.0221868 9.29518 -0.00249962 9.21389 0.00020006 9.13118L0.0383099 8.08531C0.0410225 8.01707 0.062339 7.95088 0.0999541 7.89388C0.137569 7.83688 0.190051 7.79124 0.251725 7.76192L1.27416 7.27083C1.32152 7.09716 1.3629 6.96214 1.39937 6.8636C1.45074 6.73198 1.50777 6.60264 1.57032 6.47596L1.12716 5.53952C1.09353 5.46841 1.08332 5.38846 1.09799 5.31118C1.11266 5.23389 1.15147 5.16325 1.20882 5.10942L1.9732 4.38749C2.02678 4.33695 2.09383 4.30297 2.16627 4.28965C2.23871 4.27632 2.31346 4.2842 2.38152 4.31236L3.41484 4.7392C3.52917 4.66298 3.63261 4.60146 3.72625 4.55191C3.83786 4.49257 3.98703 4.4305 4.17486 4.36354L4.53418 3.36123C4.56074 3.28787 4.6093 3.22451 4.67322 3.17978C4.73714 3.13506 4.81331 3.11115 4.89132 3.11133H6.03135ZM5.45752 6.93274C4.54996 6.93274 3.81445 7.65956 3.81445 8.5568C3.81445 9.45403 4.54996 10.1814 5.45752 10.1814C6.36454 10.1814 7.10005 9.45403 7.10005 8.5568C7.10005 7.65956 6.36508 6.93274 5.45752 6.93274Z" fill="#F2A71B"/>
<path d="M11.9188 4.25862e-07C11.9874 4.25862e-07 12.0488 0.0426999 12.0719 0.106632L12.2366 0.56326C12.2957 0.57796 12.3463 0.59266 12.3892 0.60806C12.4361 0.62486 12.4966 0.650293 12.5712 0.685059L12.9548 0.482061C12.9861 0.465473 13.022 0.459485 13.057 0.464996C13.092 0.470508 13.1242 0.487221 13.1489 0.512628L13.4863 0.861457C13.5311 0.907889 13.5437 0.975789 13.5185 1.03505L13.3386 1.45668C13.3685 1.51152 13.3923 1.55841 13.4105 1.59761C13.4301 1.64031 13.4544 1.69911 13.4833 1.77495L13.9026 1.95461C13.9656 1.98144 14.0045 2.04444 14.0003 2.11187L13.9695 2.59604C13.9674 2.62749 13.9561 2.65763 13.9371 2.68273C13.918 2.70782 13.892 2.72676 13.8622 2.7372L13.4651 2.87837C13.4537 2.9332 13.4418 2.9801 13.4292 3.01976C13.4088 3.08102 13.3856 3.14129 13.3596 3.20036L13.5591 3.64136C13.5732 3.67234 13.577 3.70702 13.5699 3.74032C13.5629 3.77361 13.5454 3.80377 13.5199 3.82639L13.1405 4.16518C13.1156 4.1874 13.0844 4.20145 13.0512 4.20546C13.018 4.20946 12.9844 4.20322 12.9548 4.18758L12.5638 3.98039C12.5026 4.01278 12.4395 4.04138 12.3748 4.06602L12.204 4.12995L12.0523 4.54995C12.0411 4.5807 12.0208 4.60734 11.9941 4.62637C11.9675 4.6454 11.9357 4.65593 11.903 4.65658L11.4597 4.66661C11.4261 4.66749 11.393 4.65794 11.365 4.63926C11.3371 4.62058 11.3156 4.5937 11.3036 4.56231L11.1248 4.08935C11.0639 4.06851 11.0035 4.04595 10.9438 4.02169C10.8949 4.00055 10.8469 3.97775 10.7996 3.95332L10.3563 4.14278C10.3271 4.15525 10.2949 4.15895 10.2636 4.15344C10.2323 4.14793 10.2033 4.13344 10.1801 4.11175L9.85205 3.80399C9.82763 3.78117 9.81099 3.75126 9.8045 3.71847C9.79801 3.68569 9.802 3.65169 9.81589 3.62129L10.0065 3.20596C9.98116 3.15677 9.95766 3.10665 9.93605 3.0557C9.91083 2.99333 9.88748 2.93023 9.86605 2.86647L9.4484 2.7393C9.41445 2.72904 9.38484 2.70786 9.36417 2.67904C9.34349 2.65022 9.33291 2.61538 9.33407 2.57994L9.3504 2.13171C9.35157 2.10246 9.3607 2.07409 9.37682 2.04966C9.39294 2.02523 9.41543 2.00568 9.44187 1.99311L9.88005 1.78265C9.90035 1.70821 9.91808 1.65035 9.93372 1.60811C9.95573 1.55171 9.98017 1.49628 10.007 1.44198L9.81705 1.04065C9.80264 1.01018 9.79826 0.975914 9.80455 0.942792C9.81084 0.909671 9.82747 0.879396 9.85205 0.856323L10.1796 0.546927C10.2026 0.525268 10.2313 0.510706 10.2624 0.504993C10.2934 0.499281 10.3255 0.502661 10.3546 0.514728L10.7975 0.697659C10.8465 0.664992 10.8908 0.638626 10.9309 0.617393C10.9788 0.59196 11.0427 0.56536 11.1232 0.536661L11.2772 0.107099C11.2886 0.0756621 11.3094 0.0485055 11.3368 0.0293373C11.3642 0.0101692 11.3968 -7.61242e-05 11.4303 4.25862e-07H11.9188ZM11.6729 1.63775C11.284 1.63775 10.9687 1.94924 10.9687 2.33377C10.9687 2.7183 11.284 3.03003 11.6729 3.03003C12.0616 3.03003 12.3769 2.7183 12.3769 2.33377C12.3769 1.94924 12.0619 1.63775 11.6729 1.63775Z" fill="#F2A71B"/>
</svg>
