<svg width="50" height="46" viewBox="0 0 50 46" fill="none" xmlns="http://www.w3.org/2000/svg">
<path d="M47.4744 12.3136C46.0798 12.3136 44.9492 11.3015 44.9492 10.0528C44.9492 8.80417 46.0798 7.79199 47.4744 7.79199C48.8691 7.79199 49.9997 8.80417 49.9997 10.0528C49.9997 11.3015 48.8691 12.3136 47.4744 12.3136ZM46.5906 10.505V10.9572H47.2219V11.4093H47.727V10.9572H47.9795C48.1469 10.9572 48.3075 10.8976 48.4259 10.7916C48.5443 10.6856 48.6108 10.5418 48.6108 10.3919C48.6108 10.242 48.5443 10.0983 48.4259 9.99228C48.3075 9.88629 48.1469 9.82674 47.9795 9.82674H46.9694C46.9359 9.82674 46.9038 9.81483 46.8801 9.79363C46.8564 9.77243 46.8431 9.74368 46.8431 9.7137C46.8431 9.68372 46.8564 9.65496 46.8801 9.63376C46.9038 9.61256 46.9359 9.60065 46.9694 9.60065H48.3583V9.14849H47.727V8.69632H47.2219V9.14849H46.9694C46.802 9.14849 46.6414 9.20804 46.523 9.31403C46.4046 9.42003 46.3381 9.56379 46.3381 9.7137C46.3381 9.8636 46.4046 10.0074 46.523 10.1134C46.6414 10.2194 46.802 10.2789 46.9694 10.2789H47.9795C48.013 10.2789 48.0451 10.2908 48.0688 10.312C48.0925 10.3332 48.1058 10.362 48.1058 10.3919C48.1058 10.4219 48.0925 10.4507 48.0688 10.4719C48.0451 10.4931 48.013 10.505 47.9795 10.505H46.5906Z" fill="#FBBD18"/>
<path d="M46.9696 28.8176C45.5749 28.8176 44.4443 27.8054 44.4443 26.5567C44.4443 25.3081 45.5749 24.2959 46.9696 24.2959C48.3642 24.2959 49.4948 25.3081 49.4948 26.5567C49.4948 27.8054 48.3642 28.8176 46.9696 28.8176ZM46.0857 27.0089V27.4611H46.717V27.9132H47.2221V27.4611H47.4746C47.642 27.4611 47.8026 27.4015 47.921 27.2955C48.0394 27.1895 48.1059 27.0458 48.1059 26.8959C48.1059 26.7459 48.0394 26.6022 47.921 26.4962C47.8026 26.3902 47.642 26.3306 47.4746 26.3306H46.4645C46.431 26.3306 46.3989 26.3187 46.3752 26.2975C46.3516 26.2763 46.3383 26.2476 46.3383 26.2176C46.3383 26.1876 46.3516 26.1589 46.3752 26.1377C46.3989 26.1165 46.431 26.1046 46.4645 26.1046H47.8534V25.6524H47.2221V25.2002H46.717V25.6524H46.4645C46.2971 25.6524 46.1365 25.7119 46.0181 25.8179C45.8997 25.9239 45.8332 26.0677 45.8332 26.2176C45.8332 26.3675 45.8997 26.5113 46.0181 26.6173C46.1365 26.7233 46.2971 26.7828 46.4645 26.7828H47.4746C47.5081 26.7828 47.5402 26.7947 47.5639 26.8159C47.5876 26.8371 47.6009 26.8659 47.6009 26.8959C47.6009 26.9258 47.5876 26.9546 47.5639 26.9758C47.5402 26.997 47.5081 27.0089 47.4746 27.0089H46.0857Z" fill="#FBBD18"/>
<path d="M46.9696 45.3215C45.5749 45.3215 44.4443 44.3093 44.4443 43.0606C44.4443 41.812 45.5749 40.7998 46.9696 40.7998C48.3642 40.7998 49.4948 41.812 49.4948 43.0606C49.4948 44.3093 48.3642 45.3215 46.9696 45.3215ZM46.0857 43.5128V43.965H46.717V44.4171H47.2221V43.965H47.4746C47.642 43.965 47.8026 43.9054 47.921 43.7994C48.0394 43.6934 48.1059 43.5497 48.1059 43.3998C48.1059 43.2499 48.0394 43.1061 47.921 43.0001C47.8026 42.8941 47.642 42.8346 47.4746 42.8346H46.4645C46.431 42.8346 46.3989 42.8226 46.3752 42.8014C46.3516 42.7802 46.3383 42.7515 46.3383 42.7215C46.3383 42.6915 46.3516 42.6628 46.3752 42.6416C46.3989 42.6204 46.431 42.6085 46.4645 42.6085H47.8534V42.1563H47.2221V41.7041H46.717V42.1563H46.4645C46.2971 42.1563 46.1365 42.2159 46.0181 42.3218C45.8997 42.4278 45.8332 42.5716 45.8332 42.7215C45.8332 42.8714 45.8997 43.0152 46.0181 43.1212C46.1365 43.2272 46.2971 43.2867 46.4645 43.2867H47.4746C47.5081 43.2867 47.5402 43.2986 47.5639 43.3198C47.5876 43.341 47.6009 43.3698 47.6009 43.3998C47.6009 43.4297 47.5876 43.4585 47.5639 43.4797C47.5402 43.5009 47.5081 43.5128 47.4746 43.5128H46.0857Z" fill="#FBBD18"/>
<path d="M39.0152 6.20873C40.515 6.20873 41.7298 4.84291 41.7298 3.15661C41.7298 1.47031 40.515 0.104492 39.0152 0.104492C37.5154 0.104492 36.3006 1.47031 36.3006 3.15661C36.3006 4.84291 37.5154 6.20873 39.0152 6.20873ZM39.0152 7.73479C37.2032 7.73479 33.5859 8.75725 33.5859 10.7869V12.313H44.4444V10.7869C44.4444 8.75725 40.8272 7.73479 39.0152 7.73479Z" fill="#FBBD18"/>
<path d="M39.0152 22.7126C40.515 22.7126 41.7298 21.3468 41.7298 19.6605C41.7298 17.9742 40.515 16.6084 39.0152 16.6084C37.5154 16.6084 36.3006 17.9742 36.3006 19.6605C36.3006 21.3468 37.5154 22.7126 39.0152 22.7126ZM39.0152 24.2387C37.2032 24.2387 33.5859 25.2612 33.5859 27.2908V28.8169H44.4444V27.2908C44.4444 25.2612 40.8272 24.2387 39.0152 24.2387Z" fill="#FBBD18"/>
<path d="M39.0152 39.2165C40.515 39.2165 41.7298 37.8507 41.7298 36.1644C41.7298 34.4781 40.515 33.1123 39.0152 33.1123C37.5154 33.1123 36.3006 34.4781 36.3006 36.1644C36.3006 37.8507 37.5154 39.2165 39.0152 39.2165ZM39.0152 40.7426C37.2032 40.7426 33.5859 41.7651 33.5859 43.7947V45.3208H44.4444V43.7947C44.4444 41.7651 40.8272 40.7426 39.0152 40.7426Z" fill="#FBBD18"/>
<path d="M13.7592 24.2493L13.7595 24.2495C14.6481 24.6552 15.1766 25.4663 15.1766 26.3355V28.5044H0.227335L0.227341 26.3355L0.227329 26.3338C0.224185 25.9082 0.352683 25.4883 0.601457 25.1203C0.8504 24.7521 1.21071 24.4495 1.645 24.2492C3.23763 23.5193 5.30411 22.9254 7.70198 22.9254C10.1 22.9254 12.1665 23.5194 13.7592 24.2493ZM11.6241 17.5039L11.5634 17.6419L11.667 17.7515C12.0556 18.1627 12.2884 18.686 12.2884 19.2504C12.2884 20.5327 11.1244 21.6089 9.62746 21.6089H5.7765C4.27958 21.6089 3.11555 20.5327 3.11555 19.2504C3.11555 18.686 3.34838 18.1627 3.737 17.7515L3.84059 17.6419L3.77985 17.5039C3.6658 17.2447 3.59695 16.9569 3.59692 16.6647C3.59783 16.2038 3.75138 15.751 4.04188 15.3637C4.33273 14.9759 4.74838 14.6707 5.2388 14.4903L5.2884 14.472L5.32486 14.4338C5.89799 13.8325 6.74345 13.4441 7.70198 13.4441C8.66051 13.4441 9.50597 13.8325 10.0791 14.4338L10.1156 14.472L10.1652 14.4903C10.6556 14.6707 11.0712 14.9759 11.3621 15.3637C11.6526 15.751 11.8061 16.2037 11.807 16.6645C11.807 16.9568 11.7382 17.2447 11.6241 17.5039Z" fill="#FBBD18" stroke="black" stroke-width="0.454545"/>
<path d="M29.1987 26.1268C29.3319 25.9937 29.3319 25.7778 29.1987 25.6447L27.0292 23.4752C26.8961 23.342 26.6802 23.342 26.5471 23.4752C26.4139 23.6083 26.4139 23.8241 26.5471 23.9573L28.4755 25.8857L26.5471 27.8142C26.4139 27.9473 26.4139 28.1632 26.5471 28.2963C26.6802 28.4295 26.8961 28.4295 27.0292 28.2963L29.1987 26.1268ZM20.0332 26.2267H28.9577V25.5448H20.0332V26.2267Z" fill="#F2A71B"/>
<path d="M31.3971 14.0136C31.4263 13.8373 31.2921 13.6682 31.0973 13.636L27.9236 13.1102C27.7288 13.0779 27.5473 13.1947 27.5181 13.371C27.4888 13.5472 27.6231 13.7163 27.8178 13.7486L30.6389 14.2159L30.2159 16.7693C30.1867 16.9456 30.3209 17.1147 30.5157 17.1469C30.7104 17.1792 30.892 17.0625 30.9212 16.8862L31.3971 14.0136ZM20.1612 21.3568L31.2564 14.2221L30.8325 13.6881L19.7373 20.8228L20.1612 21.3568Z" fill="#F2A71B"/>
<path d="M31.3971 39.4405C31.4263 39.6168 31.2921 39.7859 31.0973 39.8181L27.9236 40.3439C27.7288 40.3762 27.5473 40.2594 27.5181 40.0831C27.4888 39.9069 27.6231 39.7378 27.8178 39.7055L30.6389 39.2382L30.2159 36.6848C30.1867 36.5085 30.3209 36.3394 30.5157 36.3072C30.7104 36.2749 30.892 36.3916 30.9212 36.5679L31.3971 39.4405ZM20.1612 32.0973L31.2564 39.232L30.8325 39.766L19.7373 32.6313L20.1612 32.0973Z" fill="#F2A71B"/>
</svg>
